#tb 0: 1/25
0,          0,          0,        1,   182328, cd084b244939d7e0008d8e5ab3429dc1
0,          1,          1,        1,   182336, c9c40672750f372134185901147fb776
0,          2,          2,        1,   182956, c728911ca73225f2dc7453533c9be95e
0,          3,          3,        1,   182384, 54521f709b461a25198db755bce582fa
0,          4,          4,        1,   181704, 5e03ab58b4480a6613f54857f10c39e5
0,          5,          5,        1,   182136, c623fb06b90fdd7a5ba0b4f217b6a388
0,          6,          6,        1,   181552, 5d03be9dfc01ad99364fc3cc8378af72
0,          7,          7,        1,   182292, fc90878278c82b2f835151dc6d43dd47
0,          8,          8,        1,   181424, 9b6339a0d3af2d3034162183cd4d79e4
0,          9,          9,        1,   182316, 7e45bb5ffe57f98a433420abaffe78cc
0,         10,         10,        1,   182064, d9525605a7d7d75a8e33502f61733af1
0,         11,         11,        1,   182596, 62e87fa5c33a8d208deaa8719682b9a5
0,         12,         12,        1,   180900, 149059d3d56c55358c7044c7d569730f
0,         13,         13,        1,   181920, 0d20f588c27471a038e159a131e9c8ea
0,         14,         14,        1,   182824, a301a411ff11042ecb583e1e3b12dbda
0,         15,         15,        1,   182452, 0ee2a9ed39fb8569a8d6c2b3afb8f80a
0,         16,         16,        1,   182312, 68dd3b820adf2cbc6686a7d48fa22c6e
0,         17,         17,        1,   181856, 1897926cfe9b7acaf9c21714c449ce41
0,         18,         18,        1,   181108, 15d2af460733fdd896078632cdfef9fd
0,         19,         19,        1,   181388, 8b8e7a4b7d355f41f7e836120c4792ac
0,         20,         20,        1,   180936, e18e27aa027f2470bfa95c536a0a89af
0,         21,         21,        1,   180900, eb663ae3c5ffa8e751280e0dbb260e02
0,         22,         22,        1,   181936, 7514bbe06cee027f54710dc900297863
0,         23,         23,        1,   182304, 8cb2dcdbd4c919b4c977f45bee46c54c
0,         24,         24,        1,   182580, 9185ed53b7e8339b61d3abe230bbab71
0,         25,         25,        1,   182572, 81f8bdd3255b91d6621e9ebd3c9d7679
0,         26,         26,        1,   182356, 1f9ff40700881054c62e33acde06910d
0,         27,         27,        1,   181532, 10d2477aa1e319a61e517d25fd6c95d0
0,         28,         28,        1,   179580, 3012480c43d15866ccc4a81d56650ee2
0,         29,         29,        1,   179528, 5e0fbd62a164dc72cf511023da792175
0,         30,         30,        1,   180760, 679f430c86dca203456f532e978dffc2
0,         31,         31,        1,   181564, 64d31faf01cb7b52d7d7e20280e6652b
0,         32,         32,        1,   181428, 04961d71aa3c81b33d28b39ead20ee1d
0,         33,         33,        1,   182980, 51361c802005721002f5f4924f081708
0,         34,         34,        1,   182624, 67c5582c45e3ee7e6aca49fdc0a980b8
0,         35,         35,        1,   182352, 4fade9db12f2d6ce633556fdb8914971
0,         36,         36,        1,   181336, ac8fbab67b36d58c4e8374bfb07458e7
0,         37,         37,        1,   181528, f798157b6d4d04c767ecb76346922ddc
0,         38,         38,        1,   179776, 01d407ed0b86eeb2c3ee3c24dd452d8d
0,         39,         39,        1,   180100, 062e4af150100d7accf86a907a4b99b5
0,         40,         40,        1,   180228, 23c617b76ef8f274bd089016fb8516c7
0,         41,         41,        1,   180592, 55f538ae5e44b60209138b7536d5c199
0,         42,         42,        1,   181188, d39d52f5b690661434b1abd8717b3e30
0,         43,         43,        1,   181300, 9e202444287234bafd103fab83b1a974
0,         44,         44,        1,   180812, 602165271de71594132cce98af56a7b2
0,         45,         45,        1,   178816, c427d67196f43ece6bf3855e1256d7bb
0,         46,         46,        1,   178196, 0d05902e2870a85333a216c723077e98
0,         47,         47,        1,   178772, 57f528eb984b5b7181c89b48b58271f3
0,         48,         48,        1,   178652, 5cd1031b0ada3ba9c2d4c2f2b7c8e277
0,         49,         49,        1,   178512, d3c0c84fc63f1e32a4a026e2cd39b161
